<?xml version="1.0" encoding="UTF-8"?>
<svg version="1.1" xmlns="http://www.w3.org/2000/svg" width="300" height="300">
<path d="M0 0 C0.66 0 1.32 0 2 0 C2.18433594 0.79019531 2.36867187 1.58039063 2.55859375 2.39453125 C9.63158789 29.90061956 26.74542257 55.82482932 51.25 70.75 C66.24574012 79.52224169 83.54798543 85.29702919 101 86 C101.74636719 86.03996094 102.49273437 86.07992187 103.26171875 86.12109375 C131.71980842 86.92074255 159.06384004 75.98172353 180 57 C187.75634064 49.43464996 193.72537934 41.52459096 199 32 C199.79857422 30.60394531 199.79857422 30.60394531 200.61328125 29.1796875 C205.42014955 20.2615184 208.14624402 10.67443516 211 1 C211.66 1 212.32 1 213 1 C213.10030346 6.54601001 213.17213163 12.09147035 213.21972656 17.63818359 C213.23960682 19.51750914 213.26672087 21.39677483 213.30175781 23.27587891 C213.79459056 50.42516546 205.79253614 74.1385962 188 95 C187.39671875 95.74894531 186.7934375 96.49789062 186.171875 97.26953125 C170.49223656 116.0785093 146.05282927 127.88657788 122 131 C91.42348036 133.17694553 61.4705014 126.94302573 37.125 107.5625 C35.39811314 106.06276717 33.68918632 104.54207211 32 103 C31.16082031 102.25363281 30.32164063 101.50726563 29.45703125 100.73828125 C11.8652986 84.23750877 -0.26607267 58.59566273 -1.12939453 34.36889648 C-1.13052246 33.04962158 -1.13165039 31.73034668 -1.1328125 30.37109375 C-1.13424759 29.30291161 -1.13424759 29.30291161 -1.13571167 28.21315002 C-1.13638858 26.71639924 -1.13456863 25.21964544 -1.13037109 23.72290039 C-1.12500787 21.44085062 -1.13033678 19.15899692 -1.13671875 16.87695312 C-1.13605804 15.41666624 -1.13477701 13.95637947 -1.1328125 12.49609375 C-1.13168457 11.17794678 -1.13055664 9.8597998 -1.12939453 8.50170898 C-1.01929739 5.52223097 -0.6990796 2.88830254 0 0 Z " fill="#008996" transform="translate(40,142)"/>
<path d="M0 0 C0.94488281 -0.00128906 1.88976562 -0.00257812 2.86328125 -0.00390625 C3.83910156 -0.00003906 4.81492187 0.00382812 5.8203125 0.0078125 C7.27244141 0.00201172 7.27244141 0.00201172 8.75390625 -0.00390625 C13.9261942 0.00313088 18.84913894 0.23849792 23.9453125 1.1328125 C22.63641886 4.02615632 21.23014577 6.00831134 19.0078125 8.2578125 C2.07998013 27.27506351 -7.42206605 53.56788867 -6.37109375 78.98828125 C-4.89897387 101.33390028 2.79563157 122.18972157 17.4765625 139.2421875 C18.9453125 141.1328125 18.9453125 141.1328125 18.9453125 143.1328125 C19.6053125 143.1328125 20.2653125 143.1328125 20.9453125 143.1328125 C20.9453125 144.1228125 20.9453125 145.1128125 20.9453125 146.1328125 C0.24856813 148.19413024 -20.65299133 146.43293856 -37.6484375 133.09765625 C-40.20998809 130.85629948 -42.64224154 128.53350954 -45.0546875 126.1328125 C-45.828125 125.39417969 -46.6015625 124.65554687 -47.3984375 123.89453125 C-60.56021057 110.48484807 -66.75541755 91.31244974 -67.3671875 72.8203125 C-66.86479229 54.54899192 -60.58993079 37.59256398 -48.0546875 24.1328125 C-47.2296875 23.2459375 -46.4046875 22.3590625 -45.5546875 21.4453125 C-44.3171875 20.300625 -44.3171875 20.300625 -43.0546875 19.1328125 C-42.48363281 18.59140625 -41.91257812 18.05 -41.32421875 17.4921875 C-30.24714201 7.32161803 -15.30363256 0.02028506 0 0 Z " fill="#00AFBE" transform="translate(163.0546875,26.8671875)"/>
<path d="M0 0 C0 3.58148944 -0.96365132 5.00730894 -2.6875 8.125 C-5.31701086 13.24070715 -7.20566865 18.2925192 -8.8125 23.8125 C-9.0189917 24.51713379 -9.2254834 25.22176758 -9.43823242 25.94775391 C-15.38830397 47.1540988 -12.4274898 70.52160077 -2.00683594 89.84130859 C9.76812533 110.40626196 26.86939087 123.97863522 49.36328125 131.05859375 C72.65036224 137.24283762 96.68675072 133.52501358 117.7421875 122.13671875 C120 121 120 121 122 121 C120.3838981 124.87864456 117.76604985 127.71686647 114.9375 130.75 C114.44217773 131.28149658 113.94685547 131.81299316 113.43652344 132.3605957 C98.21888809 148.51526551 78.6796282 160.38061473 55.98046875 161.23828125 C29.53553172 161.74608992 7.06675445 154.8594343 -12.6328125 136.32421875 C-13.80457031 135.17373047 -13.80457031 135.17373047 -15 134 C-16.14082031 132.89591797 -16.14082031 132.89591797 -17.3046875 131.76953125 C-32.31541667 116.26536981 -39.67734785 95.08052634 -40.3125 73.75 C-39.78510384 48.00065816 -29.03023535 26.92676198 -11 9 C-3.16139767 1.58069884 -3.16139767 1.58069884 0 0 Z " fill="#009CA9" transform="translate(96,55)"/>
</svg>
