<?xml version="1.0" encoding="UTF-8"?>
<svg version="1.1" xmlns="http://www.w3.org/2000/svg" width="1000" height="1000">
<path d="M0 0 C1.19238843 -0.00235223 2.38477686 -0.00470446 3.61329827 -0.00712797 C6.92497035 -0.01264027 10.23658936 -0.01369102 13.54826232 -0.01285056 C17.15062119 -0.01302042 20.75297145 -0.01893055 24.355326 -0.02409142 C31.50125001 -0.03340975 38.64716783 -0.03733818 45.79309716 -0.03961039 C54.35251754 -0.04257451 62.91192972 -0.05127322 71.4713458 -0.06002467 C92.16126079 -0.08086274 112.8511772 -0.09133832 133.54110023 -0.10015428 C143.33185615 -0.10436216 153.12261145 -0.109584 162.91336684 -0.11483881 C196.43714926 -0.13272948 229.96093185 -0.1477244 263.48471832 -0.155159 C265.5891515 -0.15563375 267.69358467 -0.15610964 269.79801785 -0.15658666 C270.84161486 -0.15682303 271.88521187 -0.15705941 272.96043304 -0.15730295 C278.2476969 -0.15850413 283.53496076 -0.15971959 288.82222462 -0.16094494 C289.87149333 -0.16118509 290.92076204 -0.16142524 292.00182678 -0.16167267 C326.00904221 -0.1695627 360.01622272 -0.19298819 394.02342291 -0.22550088 C429.98860794 -0.25982263 465.95377255 -0.27951236 501.91897422 -0.28280324 C505.86964787 -0.28322077 509.8203215 -0.28370033 513.77099514 -0.28422642 C514.74374227 -0.28434961 515.71648939 -0.2844728 516.7187137 -0.28459973 C532.35326091 -0.28692894 547.98776749 -0.30257348 563.62230023 -0.32306826 C579.34839708 -0.34335543 595.07444529 -0.34878992 610.80055281 -0.33929763 C620.1346074 -0.33409375 629.46849967 -0.33990733 638.8025308 -0.3618323 C645.04962418 -0.37539278 651.29660648 -0.37421734 657.5437011 -0.36143034 C661.09532032 -0.35456836 664.64663046 -0.35374334 668.19822141 -0.37099043 C709.01757231 -0.53258505 742.77425595 10.62195907 772.68428516 39.25922108 C795.85911714 62.96300785 809.36271722 94.86677903 809.31850624 127.99678802 C809.32085847 129.19424157 809.3232107 130.39169512 809.32563421 131.62543514 C809.33114669 134.9513127 809.33219724 138.27713742 809.3313568 141.60301585 C809.33152665 145.22077377 809.33743672 148.8385231 809.34259766 152.45627671 C809.35191615 159.63280818 809.35584445 166.80933348 809.35811663 173.98587023 C809.36108071 182.58192406 809.36977939 191.17796971 809.37853091 199.77401924 C809.39936914 220.55248904 809.40984458 241.33096025 809.41866052 262.10943805 C809.42286838 271.94205064 809.42809022 281.77466261 809.43334505 291.60727468 C809.45123573 325.27421789 809.46623066 358.94116127 809.47366524 392.60810852 C809.47413999 394.72153446 809.47461588 396.83496039 809.4750929 398.94838633 C809.47544746 400.52047152 809.47544746 400.52047152 809.47580919 402.12431602 C809.47701037 407.43417695 809.47822583 412.74403788 809.47945118 418.05389881 C809.47969133 419.10765205 809.47993148 420.16140529 809.48017891 421.24709045 C809.48806898 455.39981124 809.51149454 489.55249726 809.54400712 523.70520287 C809.57832857 559.82407359 809.59801857 595.94292398 809.60130948 632.06181127 C809.60172701 636.02933586 809.60220657 639.99686045 809.60273266 643.96438503 C809.60285585 644.94128161 809.60297904 645.91817819 809.60310597 646.92467769 C809.60543522 662.6261728 809.62107996 678.32762746 809.6415745 694.02910817 C809.66186128 709.82241742 809.66729635 725.61567823 809.65780387 741.40899809 C809.65259984 750.78304455 809.65841429 760.15692938 809.68033854 769.53095248 C809.69389839 775.80470333 809.69272413 782.07834358 809.67993658 788.35209566 C809.67307419 791.91894003 809.67225103 795.48547662 809.68949667 799.05229285 C809.87475943 839.90362077 798.71811974 873.70166052 770.05928516 903.63422108 C746.37375989 926.79119907 714.47726891 940.3128168 681.36857033 940.26844215 C680.1761819 940.27079438 678.98379347 940.27314661 677.75527206 940.27557012 C674.44359998 940.28108242 671.13198097 940.28213318 667.82030801 940.28129272 C664.21794914 940.28146257 660.61559888 940.2873727 657.01324433 940.29253358 C649.86732032 940.30185191 642.7214025 940.30578033 635.57547317 940.30805254 C627.01605279 940.31101666 618.4566406 940.31971537 609.89722453 940.32846682 C589.20730954 940.3493049 568.51739313 940.35978048 547.82747009 940.36859643 C538.03671418 940.37280432 528.24595888 940.37802615 518.45520349 940.38328096 C484.93142107 940.40117164 451.40763848 940.41616656 417.88385201 940.42360115 C415.77941883 940.42407591 413.67498565 940.42455179 411.57055248 940.42502881 C410.52695547 940.42526519 409.48335845 940.42550156 408.40813729 940.4257451 C403.12087343 940.42694629 397.83360957 940.42816174 392.54634571 940.42938709 C391.497077 940.42962724 390.44780828 940.42986739 389.36674355 940.43011482 C355.35952812 940.43800485 321.3523476 940.46143034 287.34514742 940.49394304 C251.37996239 940.52826479 215.41479778 940.54795452 179.44959611 940.55124539 C175.49892246 940.55166292 171.54824882 940.55214248 167.59757519 940.55266857 C166.62482806 940.55279176 165.65208094 940.55291495 164.64985662 940.55304188 C149.01530942 940.5553711 133.38080284 940.57101564 117.7462701 940.59151042 C102.02017325 940.61179758 86.29412504 940.61723207 70.56801752 940.60773978 C61.23396293 940.60253591 51.90007065 940.60834948 42.56603952 940.63027446 C36.31894615 940.64383493 30.07196385 940.6426595 23.82486923 940.6298725 C20.27325001 940.62301051 16.72193987 940.62218549 13.17034892 940.63943259 C-27.64900198 940.80102721 -61.40568563 929.64648309 -91.31571484 901.00922108 C-114.49054681 877.3054343 -127.99414689 845.40166313 -127.94993591 812.27165413 C-127.95228814 811.07420058 -127.95464037 809.87674703 -127.95706388 808.64300701 C-127.96257636 805.31712945 -127.96362692 801.99130473 -127.96278647 798.6654263 C-127.96295632 795.04766838 -127.9688664 791.42991905 -127.97402734 787.81216544 C-127.98334582 780.63563397 -127.98727412 773.45910868 -127.9895463 766.28257192 C-127.99251038 757.6865181 -128.00120907 749.09047244 -128.00996058 740.49442291 C-128.03079881 719.71595312 -128.04127426 698.93748191 -128.05009019 678.1590041 C-128.05429805 668.32639152 -128.05951989 658.49377954 -128.06477472 648.66116747 C-128.0826654 614.99422427 -128.09766034 581.32728088 -128.10509491 547.66033363 C-128.10556966 545.5469077 -128.10604555 543.43348176 -128.10652257 541.32005582 C-128.10675895 540.27199903 -128.10699532 539.22394223 -128.10723886 538.14412614 C-128.10844004 532.8342652 -128.1096555 527.52440427 -128.11088085 522.21454334 C-128.111121 521.1607901 -128.11136115 520.10703686 -128.11160858 519.0213517 C-128.11949865 484.86863092 -128.14292421 450.71594489 -128.1754368 416.56323928 C-128.20975824 380.44436857 -128.22944825 344.32551818 -128.23273915 308.20663089 C-128.23315668 304.23910629 -128.23363624 300.2715817 -128.23416233 296.30405712 C-128.23428552 295.32716054 -128.23440871 294.35026397 -128.23453564 293.34376446 C-128.23686489 277.64226935 -128.25250964 261.94081469 -128.27300418 246.23933398 C-128.29329095 230.44602473 -128.29872602 214.65276392 -128.28923354 198.85944406 C-128.28402951 189.48539761 -128.28984396 180.11151277 -128.31176821 170.73748968 C-128.32532806 164.46373883 -128.3241538 158.19009858 -128.31136626 151.91634649 C-128.30450386 148.34950212 -128.3036807 144.78296553 -128.32092635 141.21614931 C-128.5061891 100.36482139 -117.34954941 66.56678163 -88.69071484 36.63422108 C-65.00518956 13.47724309 -33.10869858 -0.04437465 0 0 Z " fill="#4A06B6" transform="translate(160.8157148361206,31.865778923034668)"/>
<path d="M0 0 C29.37 0 58.74 0 89 0 C94.72744015 20.61878453 94.72744015 20.61878453 96.9375 29.84375 C97.30862915 31.37292053 97.30862915 31.37292053 97.68725586 32.9329834 C98.71941328 37.18619505 99.74468871 41.44105679 100.77050781 45.69580078 C104.43335138 60.90027499 104.43335138 60.90027499 108.5 76 C111.9503384 88.1399256 114.81290844 100.42869818 117.77050781 112.69580078 C121.43335138 127.90027499 121.43335138 127.90027499 125.5 143 C128.9503384 155.1399256 131.81290844 167.42869818 134.77050781 179.69580078 C137.43111464 190.71517556 140.13059221 201.70398308 143.22148132 212.61132812 C145.25463073 219.81456229 147.04793687 227.06996276 148.79516602 234.34716797 C149.32612055 236.55668053 149.86300084 238.76470089 150.40039062 240.97265625 C153 251.72618897 153 251.72618897 153 254 C153.66 254 154.32 254 155 254 C155.04340452 253.41977679 155.08680904 252.83955359 155.13152885 252.24174786 C155.73005173 245.29027502 156.99914618 238.60226566 158.48095703 231.7902832 C158.85932961 230.01936058 158.85932961 230.01936058 159.24534607 228.21266174 C159.93388849 224.99552215 160.62726502 221.77947284 161.32295847 218.56387353 C162.05883148 215.15725849 162.78865547 211.7493473 163.51925659 208.34159851 C164.75137595 202.59876887 165.98756342 196.85682762 167.2265625 191.11547852 C168.79465676 183.84906853 170.35634672 176.58129908 171.91580391 169.3130312 C173.27810298 162.96386459 174.64330677 156.61532299 176.00900793 150.26688743 C176.43629729 148.28019763 176.86325106 146.29343593 177.29016495 144.30666542 C180.65664872 128.65186353 184.0962482 113.01605011 187.65239143 97.40334797 C189.7427786 88.21352461 191.70200583 79.00470529 193.54751587 69.76290894 C196.84877316 53.25306007 200.45477955 36.82887818 204.22900391 20.42138672 C205.32010348 15.57950278 206.34251854 10.7236888 207.3581543 5.86547852 C208 3 208 3 209 0 C238.04 0 267.08 0 297 0 C299.45625024 8.59687584 301.80413664 17.05084616 303.75 25.75 C304.26747351 28.02621359 304.78574405 30.30224609 305.3046875 32.578125 C305.71412598 34.37733398 305.71412598 34.37733398 306.13183594 36.21289062 C307.68362804 42.98212548 309.28052769 49.74071515 310.875 56.5 C311.21585374 57.94628119 311.55667384 59.3925703 311.89746094 60.83886719 C312.58733366 63.76633066 313.27747334 66.69373103 313.96777344 69.62109375 C315.48147385 76.04120985 316.99163936 82.46215753 318.50201416 88.88305664 C319.33452585 92.42207312 320.16727515 95.96103368 321 99.5 C321.33333447 100.9166664 321.6666678 102.33333307 322 103.75 C322.165 104.45125 322.33 105.1525 322.5 105.875 C332 146.25000001 332 146.25000001 332.49995422 148.37483215 C332.83342427 149.79206204 333.1669102 151.2092882 333.50041199 152.62651062 C334.33178364 156.15952954 335.1628827 159.69261214 335.9934082 163.22583008 C337.51647371 169.70401264 339.04186624 176.1816132 340.57691956 182.65696716 C341.44842014 186.33350256 342.31837531 190.01040228 343.1875 193.6875 C343.3556723 194.39883087 343.5238446 195.11016174 343.69711304 195.8430481 C346.0322059 205.73371181 348.28755435 215.63834464 350.3659668 225.58666992 C351.49730342 230.94445026 352.82975844 236.21590437 354.3046875 241.48974609 C355.27073873 244.97743525 356.13791046 248.48532727 357 252 C358.94819733 248.54426265 359.83532263 245.08644953 360.76953125 241.2421875 C360.93241135 240.58026398 361.09529144 239.91834045 361.2631073 239.23635864 C361.78408354 237.11698018 362.2987878 234.99614985 362.8125 232.875 C366.57740976 217.39439389 366.57740976 217.39439389 368.55631733 210.49582291 C372.58829248 196.39204498 376.00019014 182.12268513 379.51296449 167.8831377 C380.4812906 163.96091956 381.45301888 160.03954458 382.42448425 156.11810303 C385.09769081 145.32486557 387.76597304 134.53041215 390.43387604 123.73586273 C392.87552347 113.85681549 395.31833354 103.97805965 397.76545733 94.10036731 C398.72524808 90.2256913 399.68398346 86.35076155 400.63993263 82.4751358 C404.91581451 65.14106193 409.3103354 47.85014431 413.96220398 30.61273193 C416.69024145 20.4214185 419.33691838 10.20847953 422 0 C450.05 0 478.1 0 507 0 C504.74603175 11.26984127 504.74603175 11.26984127 503.6328125 15.55078125 C503.38926025 16.48905762 503.14570801 17.42733398 502.89477539 18.39404297 C502.64074951 19.35713379 502.38672363 20.32022461 502.125 21.3125 C501.85743896 22.33230957 501.58987793 23.35211914 501.31420898 24.40283203 C499.71791666 30.43497978 498.0037636 36.40729701 496.1171875 42.35546875 C491.8947141 56.13018094 488.22902441 70.08536982 484.5 84 C479.9663679 100.9122754 475.31734355 117.78235968 470.20336914 134.52905273 C467.96442967 141.94455791 466.03068558 149.43047319 464.10693359 156.93286133 C462.60363034 162.76988287 460.95199151 168.52222788 459.12109375 174.265625 C457.50005376 179.66532616 456.07333061 185.114315 454.625 190.5625 C452.51928596 198.47886173 450.34232594 206.35668599 447.9375 214.1875 C445.42300076 222.3788747 443.23487284 230.63373657 441.10693359 238.93310547 C439.86249164 243.76461254 438.57683206 248.55685295 437.0625 253.3125 C435.07161628 259.5730889 433.38207473 265.90434862 431.6875 272.25 C427.09978224 289.41507308 422.39277096 306.53535812 417.20336914 323.52905273 C414.96442967 330.94455791 413.03068558 338.43047319 411.10693359 345.93286133 C409.60867567 351.75029286 407.96699062 357.48453566 406.13671875 363.20703125 C404.07607152 370.0829366 402.28522698 377.03588476 400.46118164 383.9777832 C400.02793579 385.61299927 400.02793579 385.61299927 399.5859375 387.28125 C399.19994385 388.75174805 399.19994385 388.75174805 398.80615234 390.25195312 C398.0329346 392.88773111 397.02015491 395.44961273 396 398 C369.27 398 342.54 398 315 398 C304.86460998 357.86933411 304.86460998 357.86933411 300.97802734 339.90893555 C299.6322801 333.72645951 298.16118534 327.60502027 296.5 321.5 C294.54472053 314.31415476 292.8877564 307.0906929 291.3125 299.8125 C288.79268347 288.20925288 285.96929561 276.6987141 283.0625 265.1875 C279.74510688 252.04495037 276.52294559 238.89152718 273.47509766 225.68359375 C271.51098795 217.17283838 269.49353515 208.67651823 267.4375 200.1875 C267.14810547 198.99261963 266.85871094 197.79773926 266.56054688 196.56665039 C265.98748025 194.20178037 265.41424038 191.83695232 264.84082031 189.47216797 C263.4913934 183.89970873 262.15116092 178.32505379 260.8125 172.75 C260.56725586 171.73059326 260.32201172 170.71118652 260.06933594 169.66088867 C258.95302453 165.01224902 257.84754918 160.36171084 256.7734375 155.703125 C256.5880542 154.90165039 256.4026709 154.10017578 256.21166992 153.27441406 C255.87260024 151.80316434 255.53661563 150.33119873 255.2043457 148.85839844 C254.66021232 145.65652385 254.66021232 145.65652385 253 143 C252.87701035 143.55254456 252.75402069 144.10508911 252.62730408 144.67437744 C249.69158323 157.82395864 246.57551929 170.91497748 243.26531982 183.97506714 C239.77433956 197.7584516 236.34252204 211.54627583 233.20068359 225.41381836 C231.11996941 234.56910824 228.91332491 243.69163766 226.6875 252.8125 C226.40081451 253.9873848 226.40081451 253.9873848 226.1083374 255.18600464 C225.1309125 259.19014318 224.15236234 263.19400572 223.17333984 267.19775391 C221.46249264 274.19651323 219.7612427 281.19760559 218.05947876 288.19857788 C217.123399 292.04915242 216.18666569 295.89956796 215.25 299.75 C214.87499689 301.29166591 214.49999688 302.83333258 214.125 304.375 C211.875 313.625 211.875 313.625 211.31257629 315.93716431 C210.93730848 317.47994667 210.56205419 319.02273232 210.18681335 320.56552124 C209.2535212 324.40264474 208.31999979 328.23971217 207.38598633 332.07666016 C205.64812129 339.21688948 203.91243905 346.3576271 202.18466187 353.50030518 C201.38000426 356.82618038 200.57407928 360.15174794 199.76806641 363.47729492 C199.38901975 365.04273528 199.01057462 366.60832144 198.6328125 368.17407227 C198.10445598 370.36383244 197.57390406 372.55305136 197.04296875 374.7421875 C196.74414795 375.9782373 196.44532715 377.21428711 196.13745117 378.48779297 C194.49343762 385.00950545 192.73297076 391.50135964 191 398 C164.93 398 138.86 398 112 398 C107 380 107 380 105.2265625 373.58203125 C102.4243917 363.47092916 99.54214979 353.39767546 96.4375 343.375 C93.79712494 334.84528809 91.46744311 326.27054162 89.26708984 317.61791992 C87.29739286 309.9504031 85.02790257 302.40081387 82.67797852 294.8425293 C80.08715023 286.44386239 77.80557295 277.97636041 75.55493164 269.48120117 C73.8166067 262.94921021 71.98132153 256.46223763 70 250 C67.33149738 241.28746823 64.95139776 232.50959896 62.60546875 223.70532227 C60.57024881 216.07941143 58.45535738 208.48154268 56.26733398 200.89819336 C54.92824013 196.25444032 53.60761187 191.60654514 52.31640625 186.94921875 C49.47944425 176.71660125 46.58009107 166.5183784 43.4375 156.375 C40.79707795 147.84530465 38.46744234 139.27053857 36.26708984 130.61791992 C34.29739286 122.9504031 32.02790257 115.40081387 29.67797852 107.8425293 C27.08715023 99.44386239 24.80557295 90.97636041 22.55493164 82.48120117 C20.8166067 75.94921021 18.98132153 69.46223763 17 63 C14.33578798 54.30147683 11.95572565 45.53860924 9.61865234 36.74707031 C7.47240658 28.69057786 5.22226922 20.66952627 2.86523438 12.67211914 C2.63384766 11.87797607 2.40246094 11.08383301 2.1640625 10.265625 C1.86169678 9.24130371 1.86169678 9.24130371 1.55322266 8.19628906 C0.87400406 5.49979723 0.45714762 2.74288574 0 0 Z " fill="#FEFEFE" transform="translate(248,536)"/>
<path d="M0 0 C35.51625 -0.0825 71.0325 -0.165 107.625 -0.25 C118.80584473 -0.28641602 129.98668945 -0.32283203 141.50634766 -0.36035156 C155.24487305 -0.37841797 155.24487305 -0.37841797 161.69296265 -0.3817749 C166.16041137 -0.38547532 170.62766659 -0.40035959 175.09506226 -0.42230225 C180.81973634 -0.45004137 186.54413506 -0.45790954 192.26887012 -0.4522891 C194.35343753 -0.45346178 196.43801606 -0.46121265 198.52252507 -0.47686052 C216.20455663 -0.60326923 234.36417351 0.8317874 250.875 7.6875 C251.72884277 8.0285376 252.58268555 8.3695752 253.46240234 8.72094727 C266.26607209 13.98749315 277.76204592 20.60890771 288 30 C288.4842041 30.43650879 288.9684082 30.87301758 289.46728516 31.32275391 C309.26908236 49.34461429 322.86375772 75.95719328 324.13891602 102.93945312 C324.79586577 125.31771208 323.35091354 144.93923324 313 165 C312.44183594 166.09054688 311.88367188 167.18109375 311.30859375 168.3046875 C307.40184839 175.42928577 302.64138412 181.18581672 297 187 C296.45988281 187.61359375 295.91976563 188.2271875 295.36328125 188.859375 C288.00161599 196.94422652 277.72615319 202.27037776 268 207 C269.05058594 207.50789062 270.10117187 208.01578125 271.18359375 208.5390625 C289.06587345 217.26820583 301.97387169 226.26807212 309.32421875 245.45703125 C314.71559274 262.99402844 314.27997226 280.91790871 314.20278788 299.06536865 C314.19012603 302.55398764 314.18909803 306.04261158 314.18673706 309.53125 C314.18056702 316.11103641 314.16421809 322.69075488 314.14403808 329.27051163 C314.11932317 337.51105712 314.10850558 345.75161409 314.09765625 353.9921875 C314.07828272 368.66151101 314.03820134 383.33068666 314 398 C286.94 398 259.88 398 232 398 C231.93941406 389.94722656 231.87882813 381.89445312 231.81640625 373.59765625 C231.77590013 368.4889271 231.73512085 363.38020304 231.69335938 358.27148438 C231.62713424 350.1669287 231.56176895 342.06237493 231.50268555 333.95776367 C231.455034 327.42195944 231.40251516 320.8862047 231.34705925 314.35046196 C231.32671621 311.8598907 231.30799024 309.36930568 231.29092598 306.87870979 C231.26670297 303.38401456 231.23667389 299.88941296 231.20532227 296.39477539 C231.1995668 295.37049942 231.19381134 294.34622345 231.18788147 293.29090881 C231.04940319 279.6653296 229.36861174 266.65939824 220 256 C217.17995685 253.61626541 214.23364364 251.77171063 211 250 C210.34644531 249.62101563 209.69289063 249.24203125 209.01953125 248.8515625 C194.52639005 241.39474324 176.37403841 242.53112302 160.58984375 242.48828125 C158.54202264 242.47277323 156.49421094 242.45596906 154.44641113 242.43786621 C146.94354403 242.38045526 139.44050319 242.34791153 131.9375 242.3125 C106.7234375 242.1578125 106.7234375 242.1578125 81 242 C81 293.48 81 344.96 81 398 C54.27 398 27.54 398 0 398 C0 266.66 0 135.32 0 0 Z " fill="#FEFEFE" transform="translate(338,82)"/>
<path d="M0 0 C28.75718657 -0.08032734 28.75718657 -0.08032734 43.01911354 -0.10050774 C50.71507884 -0.11156634 58.41100051 -0.12557933 66.10693359 -0.15087891 C72.85668618 -0.1730573 79.60639153 -0.18458502 86.35617828 -0.18975449 C88.92523185 -0.19343631 91.49428298 -0.20062585 94.06331635 -0.21146011 C97.67475369 -0.2260782 101.28599855 -0.22797363 104.89746094 -0.22705078 C106.47380058 -0.23783661 106.47380058 -0.23783661 108.08198547 -0.24884033 C118.16450576 -0.22114653 127.95162992 0.90583807 137.1875 5.125 C138.20529541 5.58459106 138.20529541 5.58459106 139.24365234 6.0534668 C149.13127722 10.73241103 155.04329143 17.3264236 160 27 C160.5775 28.11375 161.155 29.2275 161.75 30.375 C167.295883 46.4580607 166.53286711 63.44146123 160 79 C158.29073506 82.31052687 156.39044392 85.14803473 154 88 C153.49984375 88.62132812 152.9996875 89.24265625 152.484375 89.8828125 C143.24539846 100.24302406 127.44015787 104.84503583 114 106 C110.20831235 106.13290581 106.42063686 106.12667527 102.62695312 106.11352539 C100.95734024 106.11374443 100.95734024 106.11374443 99.2539978 106.1139679 C95.59639497 106.11327449 91.93884387 106.10550896 88.28125 106.09765625 C85.736776 106.09579004 83.19230164 106.09436709 80.64782715 106.09336853 C74.64861844 106.08994813 68.64943175 106.08207676 62.65023184 106.07201904 C55.14442893 106.05971071 47.63862299 106.0542636 40.1328125 106.04882812 C26.75519404 106.03911038 13.37761566 106.01907455 0 106 C0 71.02 0 36.04 0 0 Z " fill="#4A07B6" transform="translate(419,151)"/>
<path d="M0 0 C4.95292874 3.78753374 8.21758207 8.71457046 10.125 14.625 C11.1105239 23.70219381 10.93127487 32.15779554 5.125 39.625 C-0.72061692 45.27026311 -6.45781832 47.90925354 -14.625 48 C-22.0174507 47.86095704 -27.38894495 46.83619302 -32.90625 41.75390625 C-39.78833128 34.29361732 -40.42504318 27.57154477 -40.1796875 17.73828125 C-39.7876313 10.51440273 -37.18498368 6.63699611 -32 1.75 C-23.33594673 -5.79158483 -9.63947252 -5.58074725 0 0 Z " fill="#FAF8FC" transform="translate(538.875,464.375)"/>
<path d="M0 0 C4.29 0 8.58 0 13 0 C13 4.29 13 8.58 13 13 C22.24 13 31.48 13 41 13 C41 15.97 41 18.94 41 22 C31.76 22 22.52 22 13 22 C13.144375 25.691875 13.28875 29.38375 13.4375 33.1875 C13.48060303 34.3427417 13.52370605 35.4979834 13.56811523 36.68823242 C13.60622314 37.60967041 13.64433105 38.5311084 13.68359375 39.48046875 C13.72025146 40.41785889 13.75690918 41.35524902 13.79467773 42.32104492 C13.99625599 44.95114982 14.42678321 47.42766414 15 50 C16.43640171 50.19573608 17.87419504 50.38127816 19.3125 50.5625 C20.11300781 50.66691406 20.91351563 50.77132812 21.73828125 50.87890625 C24.16817116 51.14755178 24.16817116 51.14755178 27 50 C27.98142381 45.75266168 28.30920379 41.52675467 28.5625 37.1875 C28.60568359 36.49462891 28.64886719 35.80175781 28.69335938 35.08789062 C28.79861453 33.39211314 28.89972863 31.69607948 29 30 C32.96 30 36.92 30 41 30 C41.10890711 33.00099588 41.18773555 35.99796378 41.25 39 C41.30027344 40.25876953 41.30027344 40.25876953 41.3515625 41.54296875 C41.44483514 47.55905424 40.40063094 51.97912592 37 57 C32.12843742 61.74665072 27.41945664 63.29437776 20.6875 63.375 C14.95473656 63.26487912 10.52200928 62.67747327 6 59 C1.85830461 54.43271687 -0.12953955 50.39088563 -0.11352539 44.16137695 C-0.11344986 43.1805867 -0.11337433 42.19979645 -0.11329651 41.18928528 C-0.10813522 40.13295395 -0.10297394 39.07662262 -0.09765625 37.98828125 C-0.0962413 36.90491989 -0.09482635 35.82155853 -0.09336853 34.70536804 C-0.08776559 31.24105075 -0.07521258 27.7767978 -0.0625 24.3125 C-0.05748538 21.96549572 -0.05292241 19.61849044 -0.04882812 17.27148438 C-0.0377952 11.51429808 -0.02052858 5.75715995 0 0 Z " fill="#FBFBFD" transform="translate(454,449)"/>
<path d="M0 0 C5.75548186 4.77582537 5.75548186 4.77582537 6.203125 8.84765625 C6.32483537 14.59847138 5.79493686 19.8759491 3 25 C-0.46649207 27.80620787 -3.23301738 28.21611394 -7.5625 28 C-10.98395576 27.46918393 -12.10759724 26.91930207 -15 24.75 C-18.41620651 20.05271605 -18.29494564 15.70228234 -18 10 C-16.75 3.75 -16.75 3.75 -14.125 1.125 C-9.47569968 -1.33639429 -5.09211908 -1.50540822 0 0 Z " fill="#4C09B6" transform="translate(530,473)"/>
</svg>
